<svg xmlns="http://www.w3.org/2000/svg" width="24" height="24" viewBox="0 0 24 24" fill="none" stroke="#ff6b00" stroke-width="2" stroke-linecap="round" stroke-linejoin="round">
  <path d="M5 7.2A2.2 2.2 0 0 1 7.2 5h9.6A2.2 2.2 0 0 1 19 7.2v9.6a2.2 2.2 0 0 1-2.2 2.2H7.2A2.2 2.2 0 0 1 5 16.8z" />
  <path d="M9 10a1 1 0 0 0-1 1v2a1 1 0 0 0 1 1h2a1 1 0 0 0 1-1v-2a1 1 0 0 0-1-1z" />
  <path d="M12 2v2" />
  <path d="M12 20v2" />
  <path d="m4.9 4.9 1.4 1.4" />
  <path d="m17.7 17.7 1.4 1.4" />
  <path d="M2 12h2" />
  <path d="M20 12h2" />
  <path d="m4.9 19.1 1.4-1.4" />
  <path d="m17.7 6.3 1.4-1.4" />
</svg>
